{
    "asset" : {
        "generator" : "Khronos glTF Blender I/O v1.1.46",
        "version" : "2.0"
    },
    "scene" : 0,
    "scenes" : [
        {
            "name" : "Scene",
            "nodes" : [
                7
            ]
        }
    ],
    "nodes" : [
        {
            "mesh" : 0,
            "name" : "Object_10.001"
        },
        {
            "mesh" : 1,
            "name" : "Object_11.001"
        },
        {
            "mesh" : 2,
            "name" : "Object_5.001"
        },
        {
            "mesh" : 3,
            "name" : "Object_6.001"
        },
        {
            "mesh" : 4,
            "name" : "Object_7.001"
        },
        {
            "mesh" : 5,
            "name" : "Object_8.001"
        },
        {
            "mesh" : 6,
            "name" : "Object_9.001"
        },
        {
            "children" : [
                0,
                1,
                2,
                3,
                4,
                5,
                6
            ],
            "name" : "car_mesh",
            "translation" : [
                0.0012332587502896786,
                2.619497299194336,
                -0.007847858592867851
            ]
        }
    ],
    "materials" : [
        {
            "doubleSided" : true,
            "emissiveFactor" : [
                0,
                0,
                0
            ],
            "name" : "car_interior_tGA",
            "pbrMetallicRoughness" : {
                "baseColorTexture" : {
                    "index" : 0,
                    "texCoord" : 0
                },
                "metallicFactor" : 0.40288740396499634,
                "roughnessFactor" : 0.20000000298023224
            }
        },
        {
            "doubleSided" : true,
            "emissiveFactor" : [
                0,
                0,
                0
            ],
            "name" : "Mirror",
            "pbrMetallicRoughness" : {
                "baseColorFactor" : [
                    1,
                    1,
                    1,
                    1
                ],
                "metallicFactor" : 1,
                "roughnessFactor" : 1
            }
        },
        {
            "doubleSided" : true,
            "emissiveFactor" : [
                0,
                0,
                0
            ],
            "name" : "Default_Material",
            "pbrMetallicRoughness" : {
                "baseColorTexture" : {
                    "index" : 1,
                    "texCoord" : 0
                },
                "metallicFactor" : 0.20000000298023224,
                "roughnessFactor" : 1
            }
        },
        {
            "doubleSided" : true,
            "emissiveFactor" : [
                0,
                0,
                0
            ],
            "name" : "paint",
            "pbrMetallicRoughness" : {
                "baseColorFactor" : [
                    1,
                    0,
                    0,
                    1
                ],
                "metallicFactor" : 0.10000000149011612,
                "roughnessFactor" : 0.30000001192092896
            }
        },
        {
            "doubleSided" : true,
            "emissiveFactor" : [
                0,
                0,
                0
            ],
            "name" : "carbfbd_tGA",
            "pbrMetallicRoughness" : {
                "baseColorTexture" : {
                    "index" : 2,
                    "texCoord" : 0
                },
                "metallicFactor" : 0.35642364621162415,
                "roughnessFactor" : 0.2598385810852051
            }
        }
    ],
    "meshes" : [
        {
            "name" : "Mesh_5.001",
            "primitives" : [
                {
                    "attributes" : {
                        "POSITION" : 0,
                        "NORMAL" : 1,
                        "TEXCOORD_0" : 2
                    },
                    "indices" : 3,
                    "material" : 0
                }
            ]
        },
        {
            "name" : "Mesh_6.001",
            "primitives" : [
                {
                    "attributes" : {
                        "POSITION" : 4,
                        "NORMAL" : 5,
                        "TEXCOORD_0" : 6
                    },
                    "indices" : 7,
                    "material" : 1
                }
            ]
        },
        {
            "name" : "Mesh_0.001",
            "primitives" : [
                {
                    "attributes" : {
                        "POSITION" : 8,
                        "NORMAL" : 9,
                        "TEXCOORD_0" : 10
                    },
                    "indices" : 11,
                    "material" : 2
                }
            ]
        },
        {
            "name" : "Mesh_1.001",
            "primitives" : [
                {
                    "attributes" : {
                        "POSITION" : 12,
                        "NORMAL" : 13,
                        "TEXCOORD_0" : 14
                    },
                    "indices" : 15,
                    "material" : 3
                }
            ]
        },
        {
            "name" : "Mesh_2.001",
            "primitives" : [
                {
                    "attributes" : {
                        "POSITION" : 16,
                        "NORMAL" : 17,
                        "TEXCOORD_0" : 18
                    },
                    "indices" : 19,
                    "material" : 3
                }
            ]
        },
        {
            "name" : "Mesh_3.001",
            "primitives" : [
                {
                    "attributes" : {
                        "POSITION" : 20,
                        "NORMAL" : 21,
                        "TEXCOORD_0" : 22
                    },
                    "indices" : 23,
                    "material" : 3
                }
            ]
        },
        {
            "name" : "Mesh_4.001",
            "primitives" : [
                {
                    "attributes" : {
                        "POSITION" : 24,
                        "NORMAL" : 25,
                        "TEXCOORD_0" : 26
                    },
                    "indices" : 27,
                    "material" : 4
                }
            ]
        }
    ],
    "textures" : [
        {
            "source" : 0
        },
        {
            "source" : 1
        },
        {
            "source" : 1
        }
    ],
    "images" : [
        {
            "bufferView" : 4,
            "mimeType" : "image/png",
            "name" : "car_interior_tGA_baseColor"
        },
        {
            "bufferView" : 13,
            "mimeType" : "image/png",
            "name" : "Default_Material_baseColor"
        }
    ],
    "accessors" : [
        {
            "bufferView" : 0,
            "componentType" : 5126,
            "count" : 1253,
            "max" : [
                0.7851769924163818,
                0.3621741235256195,
                1.3223299980163574
            ],
            "min" : [
                -0.7851769924163818,
                -0.5094481110572815,
                -2.279129981994629
            ],
            "type" : "VEC3"
        },
        {
            "bufferView" : 1,
            "componentType" : 5126,
            "count" : 1253,
            "type" : "VEC3"
        },
        {
            "bufferView" : 2,
            "componentType" : 5126,
            "count" : 1253,
            "type" : "VEC2"
        },
        {
            "bufferView" : 3,
            "componentType" : 5123,
            "count" : 3405,
            "type" : "SCALAR"
        },
        {
            "bufferView" : 5,
            "componentType" : 5126,
            "count" : 12,
            "max" : [
                0.3455269932746887,
                0.07714958488941193,
                0.09562371671199799
            ],
            "min" : [
                -0.3455269932746887,
                0.03897907957434654,
                0.07004841417074203
            ],
            "type" : "VEC3"
        },
        {
            "bufferView" : 6,
            "componentType" : 5126,
            "count" : 12,
            "type" : "VEC3"
        },
        {
            "bufferView" : 7,
            "componentType" : 5126,
            "count" : 12,
            "type" : "VEC2"
        },
        {
            "bufferView" : 8,
            "componentType" : 5123,
            "count" : 12,
            "type" : "SCALAR"
        },
        {
            "bufferView" : 9,
            "componentType" : 5126,
            "count" : 15,
            "max" : [
                0.3744629919528961,
                0.07714958488941193,
                0.09562371671199799
            ],
            "min" : [
                -0.20153699815273285,
                -0.39621397852897644,
                -1.2363500595092773
            ],
            "type" : "VEC3"
        },
        {
            "bufferView" : 10,
            "componentType" : 5126,
            "count" : 15,
            "type" : "VEC3"
        },
        {
            "bufferView" : 11,
            "componentType" : 5126,
            "count" : 15,
            "type" : "VEC2"
        },
        {
            "bufferView" : 12,
            "componentType" : 5123,
            "count" : 15,
            "type" : "SCALAR"
        },
        {
            "bufferView" : 14,
            "componentType" : 5126,
            "count" : 2038,
            "max" : [
                0.7301300168037415,
                0.41547709703445435,
                2.007460117340088
            ],
            "min" : [
                -0.5682119727134705,
                -0.5007201433181763,
                -2.2871201038360596
            ],
            "type" : "VEC3"
        },
        {
            "bufferView" : 15,
            "componentType" : 5126,
            "count" : 2038,
            "type" : "VEC3"
        },
        {
            "bufferView" : 16,
            "componentType" : 5126,
            "count" : 2038,
            "type" : "VEC2"
        },
        {
            "bufferView" : 17,
            "componentType" : 5123,
            "count" : 7116,
            "type" : "SCALAR"
        },
        {
            "bufferView" : 18,
            "componentType" : 5126,
            "count" : 1907,
            "max" : [
                0.004304800182580948,
                0.41547709703445435,
                2.007460117340088
            ],
            "min" : [
                -0.7301300168037415,
                -0.5007201433181763,
                -2.2871201038360596
            ],
            "type" : "VEC3"
        },
        {
            "bufferView" : 19,
            "componentType" : 5126,
            "count" : 1907,
            "type" : "VEC3"
        },
        {
            "bufferView" : 20,
            "componentType" : 5126,
            "count" : 1907,
            "type" : "VEC2"
        },
        {
            "bufferView" : 21,
            "componentType" : 5123,
            "count" : 6645,
            "type" : "SCALAR"
        },
        {
            "bufferView" : 22,
            "componentType" : 5126,
            "count" : 1431,
            "max" : [
                0.7755370140075684,
                0.4952370822429657,
                2.0604300498962402
            ],
            "min" : [
                -0.7755370140075684,
                -0.4000273644924164,
                -2.2793900966644287
            ],
            "type" : "VEC3"
        },
        {
            "bufferView" : 23,
            "componentType" : 5126,
            "count" : 1431,
            "type" : "VEC3"
        },
        {
            "bufferView" : 24,
            "componentType" : 5126,
            "count" : 1431,
            "type" : "VEC2"
        },
        {
            "bufferView" : 25,
            "componentType" : 5123,
            "count" : 4365,
            "type" : "SCALAR"
        },
        {
            "bufferView" : 26,
            "componentType" : 5126,
            "count" : 3222,
            "max" : [
                0.6989759802818298,
                0.4847430884838104,
                2.0604300498962402
            ],
            "min" : [
                -0.6947000026702881,
                -0.5094481110572815,
                -2.279129981994629
            ],
            "type" : "VEC3"
        },
        {
            "bufferView" : 27,
            "componentType" : 5126,
            "count" : 3222,
            "type" : "VEC3"
        },
        {
            "bufferView" : 28,
            "componentType" : 5126,
            "count" : 3222,
            "type" : "VEC2"
        },
        {
            "bufferView" : 29,
            "componentType" : 5123,
            "count" : 6954,
            "type" : "SCALAR"
        }
    ],
    "bufferViews" : [
        {
            "buffer" : 0,
            "byteLength" : 15036,
            "byteOffset" : 0
        },
        {
            "buffer" : 0,
            "byteLength" : 15036,
            "byteOffset" : 15036
        },
        {
            "buffer" : 0,
            "byteLength" : 10024,
            "byteOffset" : 30072
        },
        {
            "buffer" : 0,
            "byteLength" : 6810,
            "byteOffset" : 40096
        },
        {
            "buffer" : 0,
            "byteLength" : 268365,
            "byteOffset" : 46908
        },
        {
            "buffer" : 0,
            "byteLength" : 144,
            "byteOffset" : 315276
        },
        {
            "buffer" : 0,
            "byteLength" : 144,
            "byteOffset" : 315420
        },
        {
            "buffer" : 0,
            "byteLength" : 96,
            "byteOffset" : 315564
        },
        {
            "buffer" : 0,
            "byteLength" : 24,
            "byteOffset" : 315660
        },
        {
            "buffer" : 0,
            "byteLength" : 180,
            "byteOffset" : 315684
        },
        {
            "buffer" : 0,
            "byteLength" : 180,
            "byteOffset" : 315864
        },
        {
            "buffer" : 0,
            "byteLength" : 120,
            "byteOffset" : 316044
        },
        {
            "buffer" : 0,
            "byteLength" : 30,
            "byteOffset" : 316164
        },
        {
            "buffer" : 0,
            "byteLength" : 124,
            "byteOffset" : 316196
        },
        {
            "buffer" : 0,
            "byteLength" : 24456,
            "byteOffset" : 316320
        },
        {
            "buffer" : 0,
            "byteLength" : 24456,
            "byteOffset" : 340776
        },
        {
            "buffer" : 0,
            "byteLength" : 16304,
            "byteOffset" : 365232
        },
        {
            "buffer" : 0,
            "byteLength" : 14232,
            "byteOffset" : 381536
        },
        {
            "buffer" : 0,
            "byteLength" : 22884,
            "byteOffset" : 395768
        },
        {
            "buffer" : 0,
            "byteLength" : 22884,
            "byteOffset" : 418652
        },
        {
            "buffer" : 0,
            "byteLength" : 15256,
            "byteOffset" : 441536
        },
        {
            "buffer" : 0,
            "byteLength" : 13290,
            "byteOffset" : 456792
        },
        {
            "buffer" : 0,
            "byteLength" : 17172,
            "byteOffset" : 470084
        },
        {
            "buffer" : 0,
            "byteLength" : 17172,
            "byteOffset" : 487256
        },
        {
            "buffer" : 0,
            "byteLength" : 11448,
            "byteOffset" : 504428
        },
        {
            "buffer" : 0,
            "byteLength" : 8730,
            "byteOffset" : 515876
        },
        {
            "buffer" : 0,
            "byteLength" : 38664,
            "byteOffset" : 524608
        },
        {
            "buffer" : 0,
            "byteLength" : 38664,
            "byteOffset" : 563272
        },
        {
            "buffer" : 0,
            "byteLength" : 25776,
            "byteOffset" : 601936
        },
        {
            "buffer" : 0,
            "byteLength" : 13908,
            "byteOffset" : 627712
        }
    ],
    "buffers" : [
        {
            "byteLength" : 641620,
            "uri" : "data:application/octet-stream;base64,"
        }
    ]
}
