{
    "asset" : {
        "generator" : "Khronos glTF Blender I/O v1.1.46",
        "version" : "2.0"
    },
    "scene" : 0,
    "scenes" : [
        {
            "name" : "Scene",
            "nodes" : [
                6
            ]
        }
    ],
    "nodes" : [
        {
            "mesh" : 0,
            "name" : "Object_10.001"
        },
        {
            "mesh" : 1,
            "name" : "Object_11.001"
        },
        {
            "mesh" : 2,
            "name" : "Object_6.001"
        },
        {
            "mesh" : 3,
            "name" : "Object_7.001"
        },
        {
            "mesh" : 4,
            "name" : "Object_8.001"
        },
        {
            "mesh" : 5,
            "name" : "Object_9.001"
        },
        {
            "children" : [
                0,
                1,
                2,
                3,
                4,
                5
            ],
            "name" : "car_mesh"
        }
    ],
    "materials" : [
        {
            "doubleSided" : true,
            "emissiveFactor" : [
                0,
                0,
                0
            ],
            "name" : "car_interior_tGA",
            "pbrMetallicRoughness" : {
                "baseColorTexture" : {
                    "index" : 0,
                    "texCoord" : 0
                },
                "metallicFactor" : 0.40288740396499634,
                "roughnessFactor" : 0.20000000298023224
            }
        },
        {
            "doubleSided" : true,
            "emissiveFactor" : [
                0,
                0,
                0
            ],
            "name" : "Mirror",
            "pbrMetallicRoughness" : {
                "baseColorFactor" : [
                    1,
                    1,
                    1,
                    1
                ],
                "metallicFactor" : 1,
                "roughnessFactor" : 1
            }
        },
        {
            "doubleSided" : true,
            "emissiveFactor" : [
                0,
                0,
                0
            ],
            "name" : "paint",
            "pbrMetallicRoughness" : {
                "baseColorFactor" : [
                    1,
                    0,
                    0,
                    1
                ],
                "metallicFactor" : 0.10000000149011612,
                "roughnessFactor" : 0.30000001192092896
            }
        },
        {
            "doubleSided" : true,
            "emissiveFactor" : [
                0,
                0,
                0
            ],
            "name" : "carbfbd_tGA",
            "pbrMetallicRoughness" : {
                "baseColorTexture" : {
                    "index" : 1,
                    "texCoord" : 0
                },
                "metallicFactor" : 0.35642364621162415,
                "roughnessFactor" : 0.2598385810852051
            }
        }
    ],
    "meshes" : [
        {
            "name" : "Mesh_5.001",
            "primitives" : [
                {
                    "attributes" : {
                        "POSITION" : 0,
                        "NORMAL" : 1,
                        "TEXCOORD_0" : 2
                    },
                    "indices" : 3,
                    "material" : 0
                }
            ]
        },
        {
            "name" : "Mesh_6.001",
            "primitives" : [
                {
                    "attributes" : {
                        "POSITION" : 4,
                        "NORMAL" : 5,
                        "TEXCOORD_0" : 6
                    },
                    "indices" : 7,
                    "material" : 1
                }
            ]
        },
        {
            "name" : "Mesh_1.001",
            "primitives" : [
                {
                    "attributes" : {
                        "POSITION" : 8,
                        "NORMAL" : 9,
                        "TEXCOORD_0" : 10
                    },
                    "indices" : 11,
                    "material" : 2
                }
            ]
        },
        {
            "name" : "Mesh_2.001",
            "primitives" : [
                {
                    "attributes" : {
                        "POSITION" : 12,
                        "NORMAL" : 13,
                        "TEXCOORD_0" : 14
                    },
                    "indices" : 15,
                    "material" : 2
                }
            ]
        },
        {
            "name" : "Mesh_3.001",
            "primitives" : [
                {
                    "attributes" : {
                        "POSITION" : 16,
                        "NORMAL" : 17,
                        "TEXCOORD_0" : 18
                    },
                    "indices" : 19,
                    "material" : 2
                }
            ]
        },
        {
            "name" : "Mesh_4.001",
            "primitives" : [
                {
                    "attributes" : {
                        "POSITION" : 20,
                        "NORMAL" : 21,
                        "TEXCOORD_0" : 22
                    },
                    "indices" : 23,
                    "material" : 3
                }
            ]
        }
    ],
    "textures" : [
        {
            "source" : 0
        },
        {
            "source" : 1
        }
    ],
    "images" : [
        {
            "bufferView" : 4,
            "mimeType" : "image/png",
            "name" : "car_interior_tGA_baseColor"
        },
        {
            "bufferView" : 25,
            "mimeType" : "image/png",
            "name" : "Default_Material_baseColor"
        }
    ],
    "accessors" : [
        {
            "bufferView" : 0,
            "componentType" : 5126,
            "count" : 570,
            "max" : [
                0.6396750211715698,
                0.3621741235256195,
                1.3223299980163574
            ],
            "min" : [
                -0.6396750211715698,
                -0.5094481110572815,
                -2.279129981994629
            ],
            "type" : "VEC3"
        },
        {
            "bufferView" : 1,
            "componentType" : 5126,
            "count" : 570,
            "type" : "VEC3"
        },
        {
            "bufferView" : 2,
            "componentType" : 5126,
            "count" : 570,
            "type" : "VEC2"
        },
        {
            "bufferView" : 3,
            "componentType" : 5123,
            "count" : 1500,
            "type" : "SCALAR"
        },
        {
            "bufferView" : 5,
            "componentType" : 5126,
            "count" : 12,
            "max" : [
                0.3455269932746887,
                0.07714958488941193,
                0.09562371671199799
            ],
            "min" : [
                -0.3455269932746887,
                0.03897907957434654,
                0.07004841417074203
            ],
            "type" : "VEC3"
        },
        {
            "bufferView" : 6,
            "componentType" : 5126,
            "count" : 12,
            "type" : "VEC3"
        },
        {
            "bufferView" : 7,
            "componentType" : 5126,
            "count" : 12,
            "type" : "VEC2"
        },
        {
            "bufferView" : 8,
            "componentType" : 5123,
            "count" : 12,
            "type" : "SCALAR"
        },
        {
            "bufferView" : 9,
            "componentType" : 5126,
            "count" : 1359,
            "max" : [
                0.7301300168037415,
                0.4163585305213928,
                2.007460117340088
            ],
            "min" : [
                -0.5654841661453247,
                -0.5007201433181763,
                -2.2871201038360596
            ],
            "type" : "VEC3"
        },
        {
            "bufferView" : 10,
            "componentType" : 5126,
            "count" : 1359,
            "type" : "VEC3"
        },
        {
            "bufferView" : 11,
            "componentType" : 5126,
            "count" : 1359,
            "type" : "VEC2"
        },
        {
            "bufferView" : 12,
            "componentType" : 5123,
            "count" : 3558,
            "type" : "SCALAR"
        },
        {
            "bufferView" : 13,
            "componentType" : 5126,
            "count" : 1271,
            "max" : [
                0.002361719962209463,
                0.4163585305213928,
                2.007460117340088
            ],
            "min" : [
                -0.7301300168037415,
                -0.5007201433181763,
                -2.2871201038360596
            ],
            "type" : "VEC3"
        },
        {
            "bufferView" : 14,
            "componentType" : 5126,
            "count" : 1271,
            "type" : "VEC3"
        },
        {
            "bufferView" : 15,
            "componentType" : 5126,
            "count" : 1271,
            "type" : "VEC2"
        },
        {
            "bufferView" : 16,
            "componentType" : 5123,
            "count" : 3321,
            "type" : "SCALAR"
        },
        {
            "bufferView" : 17,
            "componentType" : 5126,
            "count" : 576,
            "max" : [
                0.7785667777061462,
                0.32219231128692627,
                2.062647819519043
            ],
            "min" : [
                -0.7785667777061462,
                -0.39700251817703247,
                -2.2794227600097656
            ],
            "type" : "VEC3"
        },
        {
            "bufferView" : 18,
            "componentType" : 5126,
            "count" : 576,
            "type" : "VEC3"
        },
        {
            "bufferView" : 19,
            "componentType" : 5126,
            "count" : 576,
            "type" : "VEC2"
        },
        {
            "bufferView" : 20,
            "componentType" : 5123,
            "count" : 1200,
            "type" : "SCALAR"
        },
        {
            "bufferView" : 21,
            "componentType" : 5126,
            "count" : 1879,
            "max" : [
                0.6989759802818298,
                0.40050312876701355,
                2.0618300437927246
            ],
            "min" : [
                -0.6982262134552002,
                -0.5094481110572815,
                -2.279129981994629
            ],
            "type" : "VEC3"
        },
        {
            "bufferView" : 22,
            "componentType" : 5126,
            "count" : 1879,
            "type" : "VEC3"
        },
        {
            "bufferView" : 23,
            "componentType" : 5126,
            "count" : 1879,
            "type" : "VEC2"
        },
        {
            "bufferView" : 24,
            "componentType" : 5123,
            "count" : 3207,
            "type" : "SCALAR"
        }
    ],
    "bufferViews" : [
        {
            "buffer" : 0,
            "byteLength" : 6840,
            "byteOffset" : 0
        },
        {
            "buffer" : 0,
            "byteLength" : 6840,
            "byteOffset" : 6840
        },
        {
            "buffer" : 0,
            "byteLength" : 4560,
            "byteOffset" : 13680
        },
        {
            "buffer" : 0,
            "byteLength" : 3000,
            "byteOffset" : 18240
        },
        {
            "buffer" : 0,
            "byteLength" : 268365,
            "byteOffset" : 21240
        },
        {
            "buffer" : 0,
            "byteLength" : 144,
            "byteOffset" : 289608
        },
        {
            "buffer" : 0,
            "byteLength" : 144,
            "byteOffset" : 289752
        },
        {
            "buffer" : 0,
            "byteLength" : 96,
            "byteOffset" : 289896
        },
        {
            "buffer" : 0,
            "byteLength" : 24,
            "byteOffset" : 289992
        },
        {
            "buffer" : 0,
            "byteLength" : 16308,
            "byteOffset" : 290016
        },
        {
            "buffer" : 0,
            "byteLength" : 16308,
            "byteOffset" : 306324
        },
        {
            "buffer" : 0,
            "byteLength" : 10872,
            "byteOffset" : 322632
        },
        {
            "buffer" : 0,
            "byteLength" : 7116,
            "byteOffset" : 333504
        },
        {
            "buffer" : 0,
            "byteLength" : 15252,
            "byteOffset" : 340620
        },
        {
            "buffer" : 0,
            "byteLength" : 15252,
            "byteOffset" : 355872
        },
        {
            "buffer" : 0,
            "byteLength" : 10168,
            "byteOffset" : 371124
        },
        {
            "buffer" : 0,
            "byteLength" : 6642,
            "byteOffset" : 381292
        },
        {
            "buffer" : 0,
            "byteLength" : 6912,
            "byteOffset" : 387936
        },
        {
            "buffer" : 0,
            "byteLength" : 6912,
            "byteOffset" : 394848
        },
        {
            "buffer" : 0,
            "byteLength" : 4608,
            "byteOffset" : 401760
        },
        {
            "buffer" : 0,
            "byteLength" : 2400,
            "byteOffset" : 406368
        },
        {
            "buffer" : 0,
            "byteLength" : 22548,
            "byteOffset" : 408768
        },
        {
            "buffer" : 0,
            "byteLength" : 22548,
            "byteOffset" : 431316
        },
        {
            "buffer" : 0,
            "byteLength" : 15032,
            "byteOffset" : 453864
        },
        {
            "buffer" : 0,
            "byteLength" : 6414,
            "byteOffset" : 468896
        },
        {
            "buffer" : 0,
            "byteLength" : 124,
            "byteOffset" : 475312
        }
    ],
    "buffers" : [
        {
            "byteLength" : 475436,
            "uri" : "data:application/octet-stream;base64,"
        }
    ]
}
