{
    "asset" : {
        "generator" : "Khronos glTF Blender I/O v1.1.46",
        "version" : "2.0"
    },
    "scene" : 0,
    "scenes" : [
        {
            "name" : "Scene",
            "nodes" : [
                6
            ]
        }
    ],
    "nodes" : [
        {
            "mesh" : 0,
            "name" : "Object_10.001"
        },
        {
            "mesh" : 1,
            "name" : "Object_11.001"
        },
        {
            "mesh" : 2,
            "name" : "Object_6.001"
        },
        {
            "mesh" : 3,
            "name" : "Object_7.001"
        },
        {
            "mesh" : 4,
            "name" : "Object_8.001"
        },
        {
            "mesh" : 5,
            "name" : "Object_9.001"
        },
        {
            "children" : [
                0,
                1,
                2,
                3,
                4,
                5
            ],
            "name" : "car_mesh"
        }
    ],
    "materials" : [
        {
            "doubleSided" : true,
            "emissiveFactor" : [
                0,
                0,
                0
            ],
            "name" : "car_interior_tGA",
            "pbrMetallicRoughness" : {
                "baseColorTexture" : {
                    "index" : 0,
                    "texCoord" : 0
                },
                "metallicFactor" : 0.40288740396499634,
                "roughnessFactor" : 0.20000000298023224
            }
        },
        {
            "doubleSided" : true,
            "emissiveFactor" : [
                0,
                0,
                0
            ],
            "name" : "Mirror",
            "pbrMetallicRoughness" : {
                "baseColorFactor" : [
                    1,
                    1,
                    1,
                    1
                ],
                "metallicFactor" : 1,
                "roughnessFactor" : 1
            }
        },
        {
            "doubleSided" : true,
            "emissiveFactor" : [
                0,
                0,
                0
            ],
            "name" : "paint",
            "pbrMetallicRoughness" : {
                "baseColorFactor" : [
                    1,
                    0,
                    0,
                    1
                ],
                "metallicFactor" : 0.10000000149011612,
                "roughnessFactor" : 0.30000001192092896
            }
        },
        {
            "doubleSided" : true,
            "emissiveFactor" : [
                0,
                0,
                0
            ],
            "name" : "carbfbd_tGA",
            "pbrMetallicRoughness" : {
                "baseColorTexture" : {
                    "index" : 1,
                    "texCoord" : 0
                },
                "metallicFactor" : 0.35642364621162415,
                "roughnessFactor" : 0.2598385810852051
            }
        }
    ],
    "meshes" : [
        {
            "name" : "Mesh_5.001",
            "primitives" : [
                {
                    "attributes" : {
                        "POSITION" : 0,
                        "NORMAL" : 1,
                        "TEXCOORD_0" : 2
                    },
                    "indices" : 3,
                    "material" : 0
                }
            ]
        },
        {
            "name" : "Mesh_6.001",
            "primitives" : [
                {
                    "attributes" : {
                        "POSITION" : 4,
                        "NORMAL" : 5,
                        "TEXCOORD_0" : 6
                    },
                    "indices" : 7,
                    "material" : 1
                }
            ]
        },
        {
            "name" : "Mesh_1.001",
            "primitives" : [
                {
                    "attributes" : {
                        "POSITION" : 8,
                        "NORMAL" : 9,
                        "TEXCOORD_0" : 10
                    },
                    "indices" : 11,
                    "material" : 2
                }
            ]
        },
        {
            "name" : "Mesh_2.001",
            "primitives" : [
                {
                    "attributes" : {
                        "POSITION" : 12,
                        "NORMAL" : 13,
                        "TEXCOORD_0" : 14
                    },
                    "indices" : 15,
                    "material" : 2
                }
            ]
        },
        {
            "name" : "Mesh_3.001",
            "primitives" : [
                {
                    "attributes" : {
                        "POSITION" : 16,
                        "NORMAL" : 17,
                        "TEXCOORD_0" : 18
                    },
                    "indices" : 19,
                    "material" : 2
                }
            ]
        },
        {
            "name" : "Mesh_4.001",
            "primitives" : [
                {
                    "attributes" : {
                        "POSITION" : 20,
                        "NORMAL" : 21,
                        "TEXCOORD_0" : 22
                    },
                    "indices" : 23,
                    "material" : 3
                }
            ]
        }
    ],
    "textures" : [
        {
            "source" : 0
        },
        {
            "source" : 1
        }
    ],
    "images" : [
        {
            "bufferView" : 4,
            "mimeType" : "image/png",
            "name" : "car_interior_tGA_baseColor"
        },
        {
            "bufferView" : 25,
            "mimeType" : "image/png",
            "name" : "Default_Material_baseColor"
        }
    ],
    "accessors" : [
        {
            "bufferView" : 0,
            "componentType" : 5126,
            "count" : 1289,
            "max" : [
                0.7851769924163818,
                0.3621741235256195,
                1.3223299980163574
            ],
            "min" : [
                -0.7851769924163818,
                -0.5094481110572815,
                -2.279129981994629
            ],
            "type" : "VEC3"
        },
        {
            "bufferView" : 1,
            "componentType" : 5126,
            "count" : 1289,
            "type" : "VEC3"
        },
        {
            "bufferView" : 2,
            "componentType" : 5126,
            "count" : 1289,
            "type" : "VEC2"
        },
        {
            "bufferView" : 3,
            "componentType" : 5123,
            "count" : 3405,
            "type" : "SCALAR"
        },
        {
            "bufferView" : 5,
            "componentType" : 5126,
            "count" : 12,
            "max" : [
                0.3455269932746887,
                0.07714958488941193,
                0.09562371671199799
            ],
            "min" : [
                -0.3455269932746887,
                0.03897907957434654,
                0.07004841417074203
            ],
            "type" : "VEC3"
        },
        {
            "bufferView" : 6,
            "componentType" : 5126,
            "count" : 12,
            "type" : "VEC3"
        },
        {
            "bufferView" : 7,
            "componentType" : 5126,
            "count" : 12,
            "type" : "VEC2"
        },
        {
            "bufferView" : 8,
            "componentType" : 5123,
            "count" : 12,
            "type" : "SCALAR"
        },
        {
            "bufferView" : 9,
            "componentType" : 5126,
            "count" : 2034,
            "max" : [
                0.7301300168037415,
                0.41547709703445435,
                2.007460117340088
            ],
            "min" : [
                -0.5682119727134705,
                -0.5007201433181763,
                -2.2871201038360596
            ],
            "type" : "VEC3"
        },
        {
            "bufferView" : 10,
            "componentType" : 5126,
            "count" : 2034,
            "type" : "VEC3"
        },
        {
            "bufferView" : 11,
            "componentType" : 5126,
            "count" : 2034,
            "type" : "VEC2"
        },
        {
            "bufferView" : 12,
            "componentType" : 5123,
            "count" : 7116,
            "type" : "SCALAR"
        },
        {
            "bufferView" : 13,
            "componentType" : 5126,
            "count" : 1907,
            "max" : [
                0.004304800182580948,
                0.41547709703445435,
                2.007460117340088
            ],
            "min" : [
                -0.7301300168037415,
                -0.5007201433181763,
                -2.2871201038360596
            ],
            "type" : "VEC3"
        },
        {
            "bufferView" : 14,
            "componentType" : 5126,
            "count" : 1907,
            "type" : "VEC3"
        },
        {
            "bufferView" : 15,
            "componentType" : 5126,
            "count" : 1907,
            "type" : "VEC2"
        },
        {
            "bufferView" : 16,
            "componentType" : 5123,
            "count" : 6645,
            "type" : "SCALAR"
        },
        {
            "bufferView" : 17,
            "componentType" : 5126,
            "count" : 1427,
            "max" : [
                0.7755370140075684,
                0.4952370822429657,
                2.0604300498962402
            ],
            "min" : [
                -0.7755370140075684,
                -0.4000273644924164,
                -2.2793900966644287
            ],
            "type" : "VEC3"
        },
        {
            "bufferView" : 18,
            "componentType" : 5126,
            "count" : 1427,
            "type" : "VEC3"
        },
        {
            "bufferView" : 19,
            "componentType" : 5126,
            "count" : 1427,
            "type" : "VEC2"
        },
        {
            "bufferView" : 20,
            "componentType" : 5123,
            "count" : 4365,
            "type" : "SCALAR"
        },
        {
            "bufferView" : 21,
            "componentType" : 5126,
            "count" : 3282,
            "max" : [
                0.6989759802818298,
                0.4847430884838104,
                2.0604300498962402
            ],
            "min" : [
                -0.6947000026702881,
                -0.5094481110572815,
                -2.279129981994629
            ],
            "type" : "VEC3"
        },
        {
            "bufferView" : 22,
            "componentType" : 5126,
            "count" : 3282,
            "type" : "VEC3"
        },
        {
            "bufferView" : 23,
            "componentType" : 5126,
            "count" : 3282,
            "type" : "VEC2"
        },
        {
            "bufferView" : 24,
            "componentType" : 5123,
            "count" : 6954,
            "type" : "SCALAR"
        }
    ],
    "bufferViews" : [
        {
            "buffer" : 0,
            "byteLength" : 15468,
            "byteOffset" : 0
        },
        {
            "buffer" : 0,
            "byteLength" : 15468,
            "byteOffset" : 15468
        },
        {
            "buffer" : 0,
            "byteLength" : 10312,
            "byteOffset" : 30936
        },
        {
            "buffer" : 0,
            "byteLength" : 6810,
            "byteOffset" : 41248
        },
        {
            "buffer" : 0,
            "byteLength" : 268365,
            "byteOffset" : 48060
        },
        {
            "buffer" : 0,
            "byteLength" : 144,
            "byteOffset" : 316428
        },
        {
            "buffer" : 0,
            "byteLength" : 144,
            "byteOffset" : 316572
        },
        {
            "buffer" : 0,
            "byteLength" : 96,
            "byteOffset" : 316716
        },
        {
            "buffer" : 0,
            "byteLength" : 24,
            "byteOffset" : 316812
        },
        {
            "buffer" : 0,
            "byteLength" : 24408,
            "byteOffset" : 316836
        },
        {
            "buffer" : 0,
            "byteLength" : 24408,
            "byteOffset" : 341244
        },
        {
            "buffer" : 0,
            "byteLength" : 16272,
            "byteOffset" : 365652
        },
        {
            "buffer" : 0,
            "byteLength" : 14232,
            "byteOffset" : 381924
        },
        {
            "buffer" : 0,
            "byteLength" : 22884,
            "byteOffset" : 396156
        },
        {
            "buffer" : 0,
            "byteLength" : 22884,
            "byteOffset" : 419040
        },
        {
            "buffer" : 0,
            "byteLength" : 15256,
            "byteOffset" : 441924
        },
        {
            "buffer" : 0,
            "byteLength" : 13290,
            "byteOffset" : 457180
        },
        {
            "buffer" : 0,
            "byteLength" : 17124,
            "byteOffset" : 470472
        },
        {
            "buffer" : 0,
            "byteLength" : 17124,
            "byteOffset" : 487596
        },
        {
            "buffer" : 0,
            "byteLength" : 11416,
            "byteOffset" : 504720
        },
        {
            "buffer" : 0,
            "byteLength" : 8730,
            "byteOffset" : 516136
        },
        {
            "buffer" : 0,
            "byteLength" : 39384,
            "byteOffset" : 524868
        },
        {
            "buffer" : 0,
            "byteLength" : 39384,
            "byteOffset" : 564252
        },
        {
            "buffer" : 0,
            "byteLength" : 26256,
            "byteOffset" : 603636
        },
        {
            "buffer" : 0,
            "byteLength" : 13908,
            "byteOffset" : 629892
        },
        {
            "buffer" : 0,
            "byteLength" : 124,
            "byteOffset" : 643800
        }
    ],
    "buffers" : [
        {
            "byteLength" : 643924,
            "uri" : "data:application/octet-stream;base64,"
        }
    ]
}
