{
    "asset" : {
        "generator" : "Khronos glTF Blender I/O v1.1.46",
        "version" : "2.0"
    },
    "scene" : 0,
    "scenes" : [
        {
            "name" : "Scene",
            "nodes" : [
                0,
                1
            ]
        }
    ],
    "nodes" : [
        {
            "mesh" : 0,
            "name" : "car_low"
        },
        {
            "mesh" : 1,
            "name" : "car_frame"
        }
    ],
    "materials" : [
        {
            "doubleSided" : true,
            "emissiveFactor" : [
                0,
                0,
                0
            ],
            "name" : "paint",
            "pbrMetallicRoughness" : {
                "baseColorFactor" : [
                    1,
                    0,
                    0,
                    1
                ],
                "metallicFactor" : 0.10000000149011612,
                "roughnessFactor" : 0.30000001192092896
            }
        },
        {
            "doubleSided" : true,
            "emissiveFactor" : [
                0,
                0,
                0
            ],
            "name" : "black",
            "pbrMetallicRoughness" : {
                "baseColorTexture" : {
                    "index" : 0,
                    "texCoord" : 0
                },
                "metallicFactor" : 0.20000000298023224,
                "roughnessFactor" : 1
            }
        },
        {
            "doubleSided" : true,
            "emissiveFactor" : [
                0,
                0,
                0
            ],
            "name" : "wheel",
            "pbrMetallicRoughness" : {
                "baseColorFactor" : [
                    0.5225215554237366,
                    0.5225215554237366,
                    0.5225215554237366,
                    1
                ],
                "metallicFactor" : 0.5,
                "roughnessFactor" : 0.25
            }
        }
    ],
    "meshes" : [
        {
            "name" : "car_low",
            "primitives" : [
                {
                    "attributes" : {
                        "POSITION" : 0,
                        "NORMAL" : 1,
                        "TEXCOORD_0" : 2
                    },
                    "indices" : 3,
                    "material" : 0
                },
                {
                    "attributes" : {
                        "POSITION" : 4,
                        "NORMAL" : 5,
                        "TEXCOORD_0" : 6
                    },
                    "indices" : 7,
                    "material" : 1
                },
                {
                    "attributes" : {
                        "POSITION" : 8,
                        "NORMAL" : 9,
                        "TEXCOORD_0" : 10
                    },
                    "indices" : 11,
                    "material" : 2
                }
            ]
        },
        {
            "name" : "car_frame",
            "primitives" : [
                {
                    "attributes" : {
                        "POSITION" : 12,
                        "NORMAL" : 13,
                        "TEXCOORD_0" : 14
                    },
                    "indices" : 15,
                    "material" : 1
                },
                {
                    "attributes" : {
                        "POSITION" : 16,
                        "NORMAL" : 17,
                        "TEXCOORD_0" : 18
                    },
                    "indices" : 19,
                    "material" : 0
                }
            ]
        }
    ],
    "textures" : [
        {
            "source" : 0
        }
    ],
    "images" : [
        {
            "bufferView" : 8,
            "mimeType" : "image/jpeg",
            "name" : "Default_Material_baseColor"
        }
    ],
    "accessors" : [
        {
            "bufferView" : 0,
            "componentType" : 5126,
            "count" : 1361,
            "max" : [
                0.710838794708252,
                0.4150660037994385,
                2.0507450103759766
            ],
            "min" : [
                -0.710838794708252,
                -0.5354229807853699,
                -2.2831850051879883
            ],
            "type" : "VEC3"
        },
        {
            "bufferView" : 1,
            "componentType" : 5126,
            "count" : 1361,
            "type" : "VEC3"
        },
        {
            "bufferView" : 2,
            "componentType" : 5126,
            "count" : 1361,
            "type" : "VEC2"
        },
        {
            "bufferView" : 3,
            "componentType" : 5123,
            "count" : 3030,
            "type" : "SCALAR"
        },
        {
            "bufferView" : 4,
            "componentType" : 5126,
            "count" : 205,
            "max" : [
                0.694270133972168,
                -0.02725072018802166,
                0.44175177812576294
            ],
            "min" : [
                -0.694270133972168,
                -0.5460523366928101,
                -2.1760659217834473
            ],
            "type" : "VEC3"
        },
        {
            "bufferView" : 5,
            "componentType" : 5126,
            "count" : 205,
            "type" : "VEC3"
        },
        {
            "bufferView" : 6,
            "componentType" : 5126,
            "count" : 205,
            "type" : "VEC2"
        },
        {
            "bufferView" : 7,
            "componentType" : 5123,
            "count" : 444,
            "type" : "SCALAR"
        },
        {
            "bufferView" : 9,
            "componentType" : 5126,
            "count" : 192,
            "max" : [
                0.7858363389968872,
                -0.07738609611988068,
                1.3080427646636963
            ],
            "min" : [
                -0.7858363389968872,
                -0.4102666676044464,
                -2.030622720718384
            ],
            "type" : "VEC3"
        },
        {
            "bufferView" : 10,
            "componentType" : 5126,
            "count" : 192,
            "type" : "VEC3"
        },
        {
            "bufferView" : 11,
            "componentType" : 5126,
            "count" : 192,
            "type" : "VEC2"
        },
        {
            "bufferView" : 12,
            "componentType" : 5123,
            "count" : 336,
            "type" : "SCALAR"
        },
        {
            "bufferView" : 13,
            "componentType" : 5126,
            "count" : 256,
            "max" : [
                0.6530565619468689,
                -0.043609216809272766,
                1.225353479385376
            ],
            "min" : [
                -0.6530565619468689,
                -0.4316565990447998,
                -1.9865840673446655
            ],
            "type" : "VEC3"
        },
        {
            "bufferView" : 14,
            "componentType" : 5126,
            "count" : 256,
            "type" : "VEC3"
        },
        {
            "bufferView" : 15,
            "componentType" : 5126,
            "count" : 256,
            "type" : "VEC2"
        },
        {
            "bufferView" : 16,
            "componentType" : 5123,
            "count" : 384,
            "type" : "SCALAR"
        },
        {
            "bufferView" : 17,
            "componentType" : 5126,
            "count" : 64,
            "max" : [
                0.6434902548789978,
                -0.042149852961301804,
                1.2039518356323242
            ],
            "min" : [
                -0.6434902548789978,
                -0.3060164749622345,
                -1.9182230234146118
            ],
            "type" : "VEC3"
        },
        {
            "bufferView" : 18,
            "componentType" : 5126,
            "count" : 64,
            "type" : "VEC3"
        },
        {
            "bufferView" : 19,
            "componentType" : 5126,
            "count" : 64,
            "type" : "VEC2"
        },
        {
            "bufferView" : 20,
            "componentType" : 5123,
            "count" : 96,
            "type" : "SCALAR"
        }
    ],
    "bufferViews" : [
        {
            "buffer" : 0,
            "byteLength" : 16332,
            "byteOffset" : 0
        },
        {
            "buffer" : 0,
            "byteLength" : 16332,
            "byteOffset" : 16332
        },
        {
            "buffer" : 0,
            "byteLength" : 10888,
            "byteOffset" : 32664
        },
        {
            "buffer" : 0,
            "byteLength" : 6060,
            "byteOffset" : 43552
        },
        {
            "buffer" : 0,
            "byteLength" : 2460,
            "byteOffset" : 49612
        },
        {
            "buffer" : 0,
            "byteLength" : 2460,
            "byteOffset" : 52072
        },
        {
            "buffer" : 0,
            "byteLength" : 1640,
            "byteOffset" : 54532
        },
        {
            "buffer" : 0,
            "byteLength" : 888,
            "byteOffset" : 56172
        },
        {
            "buffer" : 0,
            "byteLength" : 1665,
            "byteOffset" : 57060
        },
        {
            "buffer" : 0,
            "byteLength" : 2304,
            "byteOffset" : 58728
        },
        {
            "buffer" : 0,
            "byteLength" : 2304,
            "byteOffset" : 61032
        },
        {
            "buffer" : 0,
            "byteLength" : 1536,
            "byteOffset" : 63336
        },
        {
            "buffer" : 0,
            "byteLength" : 672,
            "byteOffset" : 64872
        },
        {
            "buffer" : 0,
            "byteLength" : 3072,
            "byteOffset" : 65544
        },
        {
            "buffer" : 0,
            "byteLength" : 3072,
            "byteOffset" : 68616
        },
        {
            "buffer" : 0,
            "byteLength" : 2048,
            "byteOffset" : 71688
        },
        {
            "buffer" : 0,
            "byteLength" : 768,
            "byteOffset" : 73736
        },
        {
            "buffer" : 0,
            "byteLength" : 768,
            "byteOffset" : 74504
        },
        {
            "buffer" : 0,
            "byteLength" : 768,
            "byteOffset" : 75272
        },
        {
            "buffer" : 0,
            "byteLength" : 512,
            "byteOffset" : 76040
        },
        {
            "buffer" : 0,
            "byteLength" : 192,
            "byteOffset" : 76552
        }
    ],
    "buffers" : [
        {
            "byteLength" : 76744,
            "uri" : "data:application/octet-stream;base64,"
        }
    ]
}
