{
    "asset" : {
        "generator" : "Khronos glTF Blender I/O v1.1.46",
        "version" : "2.0"
    },
    "scene" : 0,
    "scenes" : [
        {
            "name" : "Scene",
            "nodes" : [
                0
            ]
        }
    ],
    "nodes" : [
        {
            "mesh" : 0,
            "name" : "tire"
        }
    ],
    "materials" : [
        {
            "doubleSided" : true,
            "emissiveFactor" : [
                0,
                0,
                0
            ],
            "name" : "tire",
            "normalTexture" : {
                "index" : 0,
                "scale" : 0.20000000298023224,
                "texCoord" : 0
            },
            "pbrMetallicRoughness" : {
                "baseColorTexture" : {
                    "index" : 1,
                    "texCoord" : 0
                },
                "metallicFactor" : 0,
                "roughnessFactor" : 0.5
            }
        },
        {
            "doubleSided" : true,
            "emissiveFactor" : [
                0,
                0,
                0
            ],
            "name" : "sidewall",
            "pbrMetallicRoughness" : {
                "baseColorTexture" : {
                    "index" : 2,
                    "texCoord" : 0
                },
                "metallicFactor" : 0,
                "roughnessFactor" : 0.5
            }
        },
        {
            "doubleSided" : true,
            "emissiveFactor" : [
                0,
                0,
                0
            ],
            "name" : "wheel",
            "pbrMetallicRoughness" : {
                "baseColorFactor" : [
                    0.21404114365577698,
                    0.21404114365577698,
                    0.21404114365577698,
                    1
                ],
                "metallicFactor" : 0.5,
                "roughnessFactor" : 0.25
            }
        }
    ],
    "meshes" : [
        {
            "name" : "tire",
            "primitives" : [
                {
                    "attributes" : {
                        "POSITION" : 0,
                        "NORMAL" : 1,
                        "TEXCOORD_0" : 2
                    },
                    "indices" : 3,
                    "material" : 0
                },
                {
                    "attributes" : {
                        "POSITION" : 4,
                        "NORMAL" : 5,
                        "TEXCOORD_0" : 6
                    },
                    "indices" : 7,
                    "material" : 1
                },
                {
                    "attributes" : {
                        "POSITION" : 8,
                        "NORMAL" : 9,
                        "TEXCOORD_0" : 10
                    },
                    "indices" : 11,
                    "material" : 2
                }
            ]
        }
    ],
    "textures" : [
        {
            "source" : 0
        },
        {
            "source" : 1
        },
        {
            "source" : 2
        }
    ],
    "images" : [
        {
            "bufferView" : 4,
            "mimeType" : "image/png",
            "name" : "tire_tread_normal"
        },
        {
            "bufferView" : 5,
            "mimeType" : "image/png",
            "name" : "tire_tread_baseColor"
        },
        {
            "bufferView" : 10,
            "mimeType" : "image/jpeg",
            "name" : "sidewall"
        }
    ],
    "accessors" : [
        {
            "bufferView" : 0,
            "componentType" : 5126,
            "count" : 34,
            "max" : [
                0.1060706079006195,
                0.29573145508766174,
                0.29573145508766174
            ],
            "min" : [
                -0.10607066750526428,
                -0.29573145508766174,
                -0.2957315146923065
            ],
            "type" : "VEC3"
        },
        {
            "bufferView" : 1,
            "componentType" : 5126,
            "count" : 34,
            "type" : "VEC3"
        },
        {
            "bufferView" : 2,
            "componentType" : 5126,
            "count" : 34,
            "type" : "VEC2"
        },
        {
            "bufferView" : 3,
            "componentType" : 5123,
            "count" : 96,
            "type" : "SCALAR"
        },
        {
            "bufferView" : 6,
            "componentType" : 5126,
            "count" : 176,
            "max" : [
                0.17607060074806213,
                0.29573145508766174,
                0.29573145508766174
            ],
            "min" : [
                -0.17607064545154572,
                -0.29573145508766174,
                -0.2957315146923065
            ],
            "type" : "VEC3"
        },
        {
            "bufferView" : 7,
            "componentType" : 5126,
            "count" : 176,
            "type" : "VEC3"
        },
        {
            "bufferView" : 8,
            "componentType" : 5126,
            "count" : 176,
            "type" : "VEC2"
        },
        {
            "bufferView" : 9,
            "componentType" : 5123,
            "count" : 864,
            "type" : "SCALAR"
        },
        {
            "bufferView" : 11,
            "componentType" : 5126,
            "count" : 32,
            "max" : [
                0.10853737592697144,
                0.12735217809677124,
                0.12735216319561005
            ],
            "min" : [
                -0.10853742063045502,
                -0.12735217809677124,
                -0.12735222280025482
            ],
            "type" : "VEC3"
        },
        {
            "bufferView" : 12,
            "componentType" : 5126,
            "count" : 32,
            "type" : "VEC3"
        },
        {
            "bufferView" : 13,
            "componentType" : 5126,
            "count" : 32,
            "type" : "VEC2"
        },
        {
            "bufferView" : 14,
            "componentType" : 5123,
            "count" : 84,
            "type" : "SCALAR"
        }
    ],
    "bufferViews" : [
        {
            "buffer" : 0,
            "byteLength" : 408,
            "byteOffset" : 0
        },
        {
            "buffer" : 0,
            "byteLength" : 408,
            "byteOffset" : 408
        },
        {
            "buffer" : 0,
            "byteLength" : 272,
            "byteOffset" : 816
        },
        {
            "buffer" : 0,
            "byteLength" : 192,
            "byteOffset" : 1088
        },
        {
            "buffer" : 0,
            "byteLength" : 163706,
            "byteOffset" : 1280
        },
        {
            "buffer" : 0,
            "byteLength" : 3269,
            "byteOffset" : 164988
        },
        {
            "buffer" : 0,
            "byteLength" : 2112,
            "byteOffset" : 168260
        },
        {
            "buffer" : 0,
            "byteLength" : 2112,
            "byteOffset" : 170372
        },
        {
            "buffer" : 0,
            "byteLength" : 1408,
            "byteOffset" : 172484
        },
        {
            "buffer" : 0,
            "byteLength" : 1728,
            "byteOffset" : 173892
        },
        {
            "buffer" : 0,
            "byteLength" : 5104,
            "byteOffset" : 175620
        },
        {
            "buffer" : 0,
            "byteLength" : 384,
            "byteOffset" : 180724
        },
        {
            "buffer" : 0,
            "byteLength" : 384,
            "byteOffset" : 181108
        },
        {
            "buffer" : 0,
            "byteLength" : 256,
            "byteOffset" : 181492
        },
        {
            "buffer" : 0,
            "byteLength" : 168,
            "byteOffset" : 181748
        }
    ],
    "buffers" : [
        {
            "byteLength" : 181916,
            "uri" : "data:application/octet-stream;base64,"
        }
    ]
}
