{
    "asset" : {
        "generator" : "Khronos glTF Blender I/O v1.1.46",
        "version" : "2.0"
    },
    "scene" : 0,
    "scenes" : [
        {
            "name" : "Scene",
            "nodes" : [
                0
            ]
        }
    ],
    "nodes" : [
        {
            "mesh" : 0,
            "name" : "tire"
        }
    ],
    "materials" : [
        {
            "doubleSided" : true,
            "emissiveFactor" : [
                0,
                0,
                0
            ],
            "name" : "tire_compress",
            "normalTexture" : {
                "index" : 0,
                "texCoord" : 0
            },
            "pbrMetallicRoughness" : {
                "baseColorTexture" : {
                    "index" : 1,
                    "texCoord" : 0
                },
                "metallicFactor" : 0,
                "roughnessFactor" : 0.4000000059604645
            }
        },
        {
            "doubleSided" : true,
            "emissiveFactor" : [
                0,
                0,
                0
            ],
            "name" : "sidewall",
            "pbrMetallicRoughness" : {
                "baseColorTexture" : {
                    "index" : 2,
                    "texCoord" : 0
                },
                "metallicFactor" : 0,
                "roughnessFactor" : 0.5
            }
        },
        {
            "doubleSided" : true,
            "emissiveFactor" : [
                0,
                0,
                0
            ],
            "name" : "wheel",
            "pbrMetallicRoughness" : {
                "baseColorFactor" : [
                    0.5225215554237366,
                    0.5225215554237366,
                    0.5225215554237366,
                    1
                ],
                "metallicFactor" : 0.5,
                "roughnessFactor" : 0.25
            }
        }
    ],
    "meshes" : [
        {
            "name" : "tire",
            "primitives" : [
                {
                    "attributes" : {
                        "POSITION" : 0,
                        "NORMAL" : 1,
                        "TEXCOORD_0" : 2
                    },
                    "indices" : 3,
                    "material" : 0
                },
                {
                    "attributes" : {
                        "POSITION" : 4,
                        "NORMAL" : 5,
                        "TEXCOORD_0" : 6
                    },
                    "indices" : 7,
                    "material" : 1
                },
                {
                    "attributes" : {
                        "POSITION" : 8,
                        "NORMAL" : 9,
                        "TEXCOORD_0" : 10
                    },
                    "indices" : 11,
                    "material" : 2
                }
            ]
        }
    ],
    "textures" : [
        {
            "source" : 0
        },
        {
            "source" : 1
        },
        {
            "source" : 2
        }
    ],
    "images" : [
        {
            "bufferView" : 4,
            "mimeType" : "image/jpeg",
            "name" : "tire_tread_normal"
        },
        {
            "bufferView" : 5,
            "mimeType" : "image/jpeg",
            "name" : "tire_tread_baseColor"
        },
        {
            "bufferView" : 10,
            "mimeType" : "image/jpeg",
            "name" : "sidewall"
        }
    ],
    "accessors" : [
        {
            "bufferView" : 0,
            "componentType" : 5126,
            "count" : 49,
            "max" : [
                0.10626404732465744,
                0.29798275232315063,
                0.2984640896320343
            ],
            "min" : [
                -0.1062435507774353,
                -0.2984640896320343,
                -0.2984641492366791
            ],
            "type" : "VEC3"
        },
        {
            "bufferView" : 1,
            "componentType" : 5126,
            "count" : 49,
            "type" : "VEC3"
        },
        {
            "bufferView" : 2,
            "componentType" : 5126,
            "count" : 49,
            "type" : "VEC2"
        },
        {
            "bufferView" : 3,
            "componentType" : 5123,
            "count" : 141,
            "type" : "SCALAR"
        },
        {
            "bufferView" : 6,
            "componentType" : 5126,
            "count" : 182,
            "max" : [
                0.17610988020896912,
                0.29798275232315063,
                0.2984640896320343
            ],
            "min" : [
                -0.1761096566915512,
                -0.2984640896320343,
                -0.2984641492366791
            ],
            "type" : "VEC3"
        },
        {
            "bufferView" : 7,
            "componentType" : 5126,
            "count" : 182,
            "type" : "VEC3"
        },
        {
            "bufferView" : 8,
            "componentType" : 5126,
            "count" : 182,
            "type" : "VEC2"
        },
        {
            "bufferView" : 9,
            "componentType" : 5123,
            "count" : 840,
            "type" : "SCALAR"
        },
        {
            "bufferView" : 11,
            "componentType" : 5126,
            "count" : 27,
            "max" : [
                0.10853463411331177,
                0.12917156517505646,
                0.1287575215101242
            ],
            "min" : [
                -0.10853490978479385,
                -0.12917876243591309,
                -0.12918105721473694
            ],
            "type" : "VEC3"
        },
        {
            "bufferView" : 12,
            "componentType" : 5126,
            "count" : 27,
            "type" : "VEC3"
        },
        {
            "bufferView" : 13,
            "componentType" : 5126,
            "count" : 27,
            "type" : "VEC2"
        },
        {
            "bufferView" : 14,
            "componentType" : 5123,
            "count" : 69,
            "type" : "SCALAR"
        }
    ],
    "bufferViews" : [
        {
            "buffer" : 0,
            "byteLength" : 588,
            "byteOffset" : 0
        },
        {
            "buffer" : 0,
            "byteLength" : 588,
            "byteOffset" : 588
        },
        {
            "buffer" : 0,
            "byteLength" : 392,
            "byteOffset" : 1176
        },
        {
            "buffer" : 0,
            "byteLength" : 282,
            "byteOffset" : 1568
        },
        {
            "buffer" : 0,
            "byteLength" : 96259,
            "byteOffset" : 1852
        },
        {
            "buffer" : 0,
            "byteLength" : 14282,
            "byteOffset" : 98112
        },
        {
            "buffer" : 0,
            "byteLength" : 2184,
            "byteOffset" : 112396
        },
        {
            "buffer" : 0,
            "byteLength" : 2184,
            "byteOffset" : 114580
        },
        {
            "buffer" : 0,
            "byteLength" : 1456,
            "byteOffset" : 116764
        },
        {
            "buffer" : 0,
            "byteLength" : 1680,
            "byteOffset" : 118220
        },
        {
            "buffer" : 0,
            "byteLength" : 5104,
            "byteOffset" : 119900
        },
        {
            "buffer" : 0,
            "byteLength" : 324,
            "byteOffset" : 125004
        },
        {
            "buffer" : 0,
            "byteLength" : 324,
            "byteOffset" : 125328
        },
        {
            "buffer" : 0,
            "byteLength" : 216,
            "byteOffset" : 125652
        },
        {
            "buffer" : 0,
            "byteLength" : 138,
            "byteOffset" : 125868
        }
    ],
    "buffers" : [
        {
            "byteLength" : 126008,
            "uri" : "data:application/octet-stream;base64,"
        }
    ]
}
