{
    "asset" : {
        "generator" : "Khronos glTF Blender I/O v1.1.46",
        "version" : "2.0"
    },
    "scene" : 0,
    "scenes" : [
        {
            "name" : "Scene",
            "nodes" : [
                5
            ]
        }
    ],
    "nodes" : [
        {
            "mesh" : 0,
            "name" : "Object_29",
            "rotation" : [
                0,
                1,
                0,
                -7.549790836947068e-08
            ]
        },
        {
            "mesh" : 1,
            "name" : "Object_30",
            "rotation" : [
                0,
                1,
                0,
                -7.549790836947068e-08
            ]
        },
        {
            "mesh" : 2,
            "name" : "Object_31",
            "rotation" : [
                0,
                1,
                0,
                -7.549790836947068e-08
            ]
        },
        {
            "mesh" : 3,
            "name" : "Object_32",
            "rotation" : [
                0,
                1,
                0,
                -7.549790836947068e-08
            ]
        },
        {
            "mesh" : 4,
            "name" : "Object_33",
            "rotation" : [
                0,
                1,
                0,
                -7.549790836947068e-08
            ]
        },
        {
            "children" : [
                0,
                1,
                2,
                3,
                4
            ],
            "name" : "FER_TIRE_RF_6",
            "scale" : [
                -1,
                -1,
                -1
            ]
        }
    ],
    "animations" : [
        {
            "channels" : [
                {
                    "sampler" : 0,
                    "target" : {
                        "node" : 5,
                        "path" : "rotation"
                    }
                }
            ],
            "name" : "FER_TIRE_RF_6Action",
            "samplers" : [
                {
                    "input" : 42,
                    "interpolation" : "LINEAR",
                    "output" : 43
                }
            ]
        }
    ],
    "materials" : [
        {
            "doubleSided" : true,
            "emissiveFactor" : [
                0,
                0,
                0
            ],
            "name" : "tire_tread",
            "normalTexture" : {
                "index" : 0,
                "texCoord" : 0
            },
            "pbrMetallicRoughness" : {
                "baseColorTexture" : {
                    "index" : 1,
                    "texCoord" : 0
                },
                "metallicFactor" : 0,
                "roughnessFactor" : 0.4000000059604645
            }
        },
        {
            "doubleSided" : true,
            "emissiveFactor" : [
                0,
                0,
                0
            ],
            "name" : "tire_wall",
            "normalTexture" : {
                "index" : 2,
                "scale" : 0.571524441242218,
                "texCoord" : 0
            },
            "pbrMetallicRoughness" : {
                "baseColorTexture" : {
                    "index" : 3,
                    "texCoord" : 0
                },
                "metallicFactor" : 0,
                "roughnessFactor" : 0.20000000298023224
            }
        },
        {
            "doubleSided" : true,
            "emissiveFactor" : [
                0,
                0,
                0
            ],
            "name" : "wheel",
            "pbrMetallicRoughness" : {
                "baseColorFactor" : [
                    0.21404114365577698,
                    0.21404114365577698,
                    0.21404114365577698,
                    1
                ],
                "metallicFactor" : 0.5,
                "roughnessFactor" : 0.25
            }
        },
        {
            "doubleSided" : true,
            "emissiveFactor" : [
                0,
                0,
                0
            ],
            "name" : "Default_Material",
            "pbrMetallicRoughness" : {
                "baseColorTexture" : {
                    "index" : 4,
                    "texCoord" : 0
                },
                "metallicFactor" : 0.20000000298023224,
                "roughnessFactor" : 1
            }
        }
    ],
    "meshes" : [
        {
            "name" : "Mesh_19",
            "primitives" : [
                {
                    "attributes" : {
                        "POSITION" : 0,
                        "NORMAL" : 1,
                        "TEXCOORD_0" : 2,
                        "TEXCOORD_1" : 3,
                        "TEXCOORD_2" : 4,
                        "TEXCOORD_3" : 5
                    },
                    "indices" : 6,
                    "material" : 0
                }
            ]
        },
        {
            "name" : "Mesh_20",
            "primitives" : [
                {
                    "attributes" : {
                        "POSITION" : 7,
                        "NORMAL" : 8,
                        "TEXCOORD_0" : 9,
                        "TEXCOORD_1" : 10,
                        "TEXCOORD_2" : 11,
                        "TEXCOORD_3" : 12
                    },
                    "indices" : 13,
                    "material" : 1
                }
            ]
        },
        {
            "name" : "Mesh_21",
            "primitives" : [
                {
                    "attributes" : {
                        "POSITION" : 14,
                        "NORMAL" : 15,
                        "TEXCOORD_0" : 16,
                        "TEXCOORD_1" : 17,
                        "TEXCOORD_2" : 18,
                        "TEXCOORD_3" : 19
                    },
                    "indices" : 20,
                    "material" : 2
                }
            ]
        },
        {
            "name" : "Mesh_22",
            "primitives" : [
                {
                    "attributes" : {
                        "POSITION" : 21,
                        "NORMAL" : 22,
                        "TEXCOORD_0" : 23,
                        "TEXCOORD_1" : 24,
                        "TEXCOORD_2" : 25,
                        "TEXCOORD_3" : 26
                    },
                    "indices" : 27,
                    "material" : 3
                },
                {
                    "attributes" : {
                        "POSITION" : 28,
                        "NORMAL" : 29,
                        "TEXCOORD_0" : 30,
                        "TEXCOORD_1" : 31,
                        "TEXCOORD_2" : 32,
                        "TEXCOORD_3" : 33
                    },
                    "indices" : 34,
                    "material" : 2
                }
            ]
        },
        {
            "name" : "Mesh_23",
            "primitives" : [
                {
                    "attributes" : {
                        "POSITION" : 35,
                        "NORMAL" : 36,
                        "TEXCOORD_0" : 37,
                        "TEXCOORD_1" : 38,
                        "TEXCOORD_2" : 39,
                        "TEXCOORD_3" : 40
                    },
                    "indices" : 41,
                    "material" : 2
                }
            ]
        }
    ],
    "textures" : [
        {
            "source" : 0
        },
        {
            "source" : 1
        },
        {
            "source" : 2
        },
        {
            "source" : 3
        },
        {
            "source" : 4
        }
    ],
    "images" : [
        {
            "bufferView" : 7,
            "mimeType" : "image/png",
            "name" : "tire_tread_normal"
        },
        {
            "bufferView" : 8,
            "mimeType" : "image/png",
            "name" : "tire_tread_baseColor"
        },
        {
            "bufferView" : 16,
            "mimeType" : "image/png",
            "name" : "tire_wall_normal"
        },
        {
            "bufferView" : 17,
            "mimeType" : "image/png",
            "name" : "tire_wall_baseColor"
        },
        {
            "bufferView" : 32,
            "mimeType" : "image/png",
            "name" : "Default_Material_baseColor"
        }
    ],
    "accessors" : [
        {
            "bufferView" : 0,
            "componentType" : 5126,
            "count" : 352,
            "max" : [
                0.12589596211910248,
                0.3190808594226837,
                0.3187467157840729
            ],
            "min" : [
                -0.13400015234947205,
                -0.31891748309135437,
                -0.31925180554389954
            ],
            "type" : "VEC3"
        },
        {
            "bufferView" : 1,
            "componentType" : 5126,
            "count" : 352,
            "type" : "VEC3"
        },
        {
            "bufferView" : 2,
            "componentType" : 5126,
            "count" : 352,
            "type" : "VEC2"
        },
        {
            "bufferView" : 3,
            "componentType" : 5126,
            "count" : 352,
            "type" : "VEC2"
        },
        {
            "bufferView" : 4,
            "componentType" : 5126,
            "count" : 352,
            "type" : "VEC2"
        },
        {
            "bufferView" : 5,
            "componentType" : 5126,
            "count" : 352,
            "type" : "VEC2"
        },
        {
            "bufferView" : 6,
            "componentType" : 5123,
            "count" : 1440,
            "type" : "SCALAR"
        },
        {
            "bufferView" : 9,
            "componentType" : 5126,
            "count" : 520,
            "max" : [
                0.17437537014484406,
                0.30629727244377136,
                0.30596452951431274
            ],
            "min" : [
                -0.17439210414886475,
                -0.3061353266239166,
                -0.30646830797195435
            ],
            "type" : "VEC3"
        },
        {
            "bufferView" : 10,
            "componentType" : 5126,
            "count" : 520,
            "type" : "VEC3"
        },
        {
            "bufferView" : 11,
            "componentType" : 5126,
            "count" : 520,
            "type" : "VEC2"
        },
        {
            "bufferView" : 12,
            "componentType" : 5126,
            "count" : 520,
            "type" : "VEC2"
        },
        {
            "bufferView" : 13,
            "componentType" : 5126,
            "count" : 520,
            "type" : "VEC2"
        },
        {
            "bufferView" : 14,
            "componentType" : 5126,
            "count" : 520,
            "type" : "VEC2"
        },
        {
            "bufferView" : 15,
            "componentType" : 5123,
            "count" : 2640,
            "type" : "SCALAR"
        },
        {
            "bufferView" : 18,
            "componentType" : 5126,
            "count" : 480,
            "max" : [
                0.17432120442390442,
                0.1867789924144745,
                0.18674850463867188
            ],
            "min" : [
                -0.17189639806747437,
                -0.18670471012592316,
                -0.18673545122146606
            ],
            "type" : "VEC3"
        },
        {
            "bufferView" : 19,
            "componentType" : 5126,
            "count" : 480,
            "type" : "VEC3"
        },
        {
            "bufferView" : 20,
            "componentType" : 5126,
            "count" : 480,
            "type" : "VEC2"
        },
        {
            "bufferView" : 21,
            "componentType" : 5126,
            "count" : 480,
            "type" : "VEC2"
        },
        {
            "bufferView" : 22,
            "componentType" : 5126,
            "count" : 480,
            "type" : "VEC2"
        },
        {
            "bufferView" : 23,
            "componentType" : 5126,
            "count" : 480,
            "type" : "VEC2"
        },
        {
            "bufferView" : 24,
            "componentType" : 5123,
            "count" : 1440,
            "type" : "SCALAR"
        },
        {
            "bufferView" : 25,
            "componentType" : 5126,
            "count" : 368,
            "max" : [
                -0.06320877373218536,
                0.04354909807443619,
                0.044331375509500504
            ],
            "min" : [
                -0.09358341991901398,
                -0.043783508241176605,
                -0.043001268059015274
            ],
            "type" : "VEC3"
        },
        {
            "bufferView" : 26,
            "componentType" : 5126,
            "count" : 368,
            "type" : "VEC3"
        },
        {
            "bufferView" : 27,
            "componentType" : 5126,
            "count" : 368,
            "type" : "VEC2"
        },
        {
            "bufferView" : 28,
            "componentType" : 5126,
            "count" : 368,
            "type" : "VEC2"
        },
        {
            "bufferView" : 29,
            "componentType" : 5126,
            "count" : 368,
            "type" : "VEC2"
        },
        {
            "bufferView" : 30,
            "componentType" : 5126,
            "count" : 368,
            "type" : "VEC2"
        },
        {
            "bufferView" : 31,
            "componentType" : 5123,
            "count" : 972,
            "type" : "SCALAR"
        },
        {
            "bufferView" : 33,
            "componentType" : 5126,
            "count" : 126,
            "max" : [
                -0.09206528961658478,
                0.023634232580661774,
                0.024185694754123688
            ],
            "min" : [
                -0.12610860168933868,
                -0.023971514776349068,
                -0.02280907705426216
            ],
            "type" : "VEC3"
        },
        {
            "bufferView" : 34,
            "componentType" : 5126,
            "count" : 126,
            "type" : "VEC3"
        },
        {
            "bufferView" : 35,
            "componentType" : 5126,
            "count" : 126,
            "type" : "VEC2"
        },
        {
            "bufferView" : 36,
            "componentType" : 5126,
            "count" : 126,
            "type" : "VEC2"
        },
        {
            "bufferView" : 37,
            "componentType" : 5126,
            "count" : 126,
            "type" : "VEC2"
        },
        {
            "bufferView" : 38,
            "componentType" : 5126,
            "count" : 126,
            "type" : "VEC2"
        },
        {
            "bufferView" : 39,
            "componentType" : 5123,
            "count" : 354,
            "type" : "SCALAR"
        },
        {
            "bufferView" : 40,
            "componentType" : 5126,
            "count" : 780,
            "max" : [
                -0.07226391136646271,
                0.1389048844575882,
                0.1363062560558319
            ],
            "min" : [
                -0.12939639389514923,
                -0.13898639380931854,
                -0.13694697618484497
            ],
            "type" : "VEC3"
        },
        {
            "bufferView" : 41,
            "componentType" : 5126,
            "count" : 780,
            "type" : "VEC3"
        },
        {
            "bufferView" : 42,
            "componentType" : 5126,
            "count" : 780,
            "type" : "VEC2"
        },
        {
            "bufferView" : 43,
            "componentType" : 5126,
            "count" : 780,
            "type" : "VEC2"
        },
        {
            "bufferView" : 44,
            "componentType" : 5126,
            "count" : 780,
            "type" : "VEC2"
        },
        {
            "bufferView" : 45,
            "componentType" : 5126,
            "count" : 780,
            "type" : "VEC2"
        },
        {
            "bufferView" : 46,
            "componentType" : 5123,
            "count" : 1974,
            "type" : "SCALAR"
        },
        {
            "bufferView" : 47,
            "componentType" : 5126,
            "count" : 31,
            "max" : [
                1.25
            ],
            "min" : [
                0
            ],
            "type" : "SCALAR"
        },
        {
            "bufferView" : 48,
            "componentType" : 5126,
            "count" : 31,
            "type" : "VEC4"
        }
    ],
    "bufferViews" : [
        {
            "buffer" : 0,
            "byteLength" : 4224,
            "byteOffset" : 0
        },
        {
            "buffer" : 0,
            "byteLength" : 4224,
            "byteOffset" : 4224
        },
        {
            "buffer" : 0,
            "byteLength" : 2816,
            "byteOffset" : 8448
        },
        {
            "buffer" : 0,
            "byteLength" : 2816,
            "byteOffset" : 11264
        },
        {
            "buffer" : 0,
            "byteLength" : 2816,
            "byteOffset" : 14080
        },
        {
            "buffer" : 0,
            "byteLength" : 2816,
            "byteOffset" : 16896
        },
        {
            "buffer" : 0,
            "byteLength" : 2880,
            "byteOffset" : 19712
        },
        {
            "buffer" : 0,
            "byteLength" : 365666,
            "byteOffset" : 22592
        },
        {
            "buffer" : 0,
            "byteLength" : 3413,
            "byteOffset" : 388260
        },
        {
            "buffer" : 0,
            "byteLength" : 6240,
            "byteOffset" : 391676
        },
        {
            "buffer" : 0,
            "byteLength" : 6240,
            "byteOffset" : 397916
        },
        {
            "buffer" : 0,
            "byteLength" : 4160,
            "byteOffset" : 404156
        },
        {
            "buffer" : 0,
            "byteLength" : 4160,
            "byteOffset" : 408316
        },
        {
            "buffer" : 0,
            "byteLength" : 4160,
            "byteOffset" : 412476
        },
        {
            "buffer" : 0,
            "byteLength" : 4160,
            "byteOffset" : 416636
        },
        {
            "buffer" : 0,
            "byteLength" : 5280,
            "byteOffset" : 420796
        },
        {
            "buffer" : 0,
            "byteLength" : 90416,
            "byteOffset" : 426076
        },
        {
            "buffer" : 0,
            "byteLength" : 166341,
            "byteOffset" : 516492
        },
        {
            "buffer" : 0,
            "byteLength" : 5760,
            "byteOffset" : 682836
        },
        {
            "buffer" : 0,
            "byteLength" : 5760,
            "byteOffset" : 688596
        },
        {
            "buffer" : 0,
            "byteLength" : 3840,
            "byteOffset" : 694356
        },
        {
            "buffer" : 0,
            "byteLength" : 3840,
            "byteOffset" : 698196
        },
        {
            "buffer" : 0,
            "byteLength" : 3840,
            "byteOffset" : 702036
        },
        {
            "buffer" : 0,
            "byteLength" : 3840,
            "byteOffset" : 705876
        },
        {
            "buffer" : 0,
            "byteLength" : 2880,
            "byteOffset" : 709716
        },
        {
            "buffer" : 0,
            "byteLength" : 4416,
            "byteOffset" : 712596
        },
        {
            "buffer" : 0,
            "byteLength" : 4416,
            "byteOffset" : 717012
        },
        {
            "buffer" : 0,
            "byteLength" : 2944,
            "byteOffset" : 721428
        },
        {
            "buffer" : 0,
            "byteLength" : 2944,
            "byteOffset" : 724372
        },
        {
            "buffer" : 0,
            "byteLength" : 2944,
            "byteOffset" : 727316
        },
        {
            "buffer" : 0,
            "byteLength" : 2944,
            "byteOffset" : 730260
        },
        {
            "buffer" : 0,
            "byteLength" : 1944,
            "byteOffset" : 733204
        },
        {
            "buffer" : 0,
            "byteLength" : 124,
            "byteOffset" : 735148
        },
        {
            "buffer" : 0,
            "byteLength" : 1512,
            "byteOffset" : 735272
        },
        {
            "buffer" : 0,
            "byteLength" : 1512,
            "byteOffset" : 736784
        },
        {
            "buffer" : 0,
            "byteLength" : 1008,
            "byteOffset" : 738296
        },
        {
            "buffer" : 0,
            "byteLength" : 1008,
            "byteOffset" : 739304
        },
        {
            "buffer" : 0,
            "byteLength" : 1008,
            "byteOffset" : 740312
        },
        {
            "buffer" : 0,
            "byteLength" : 1008,
            "byteOffset" : 741320
        },
        {
            "buffer" : 0,
            "byteLength" : 708,
            "byteOffset" : 742328
        },
        {
            "buffer" : 0,
            "byteLength" : 9360,
            "byteOffset" : 743036
        },
        {
            "buffer" : 0,
            "byteLength" : 9360,
            "byteOffset" : 752396
        },
        {
            "buffer" : 0,
            "byteLength" : 6240,
            "byteOffset" : 761756
        },
        {
            "buffer" : 0,
            "byteLength" : 6240,
            "byteOffset" : 767996
        },
        {
            "buffer" : 0,
            "byteLength" : 6240,
            "byteOffset" : 774236
        },
        {
            "buffer" : 0,
            "byteLength" : 6240,
            "byteOffset" : 780476
        },
        {
            "buffer" : 0,
            "byteLength" : 3948,
            "byteOffset" : 786716
        },
        {
            "buffer" : 0,
            "byteLength" : 124,
            "byteOffset" : 790664
        },
        {
            "buffer" : 0,
            "byteLength" : 496,
            "byteOffset" : 790788
        }
    ],
    "buffers" : [
        {
            "byteLength" : 791284,
            "uri" : "data:application/octet-stream;base64,"
        }
    ]
}
